<?xml version="1.0" encoding="UTF-8" standalone="no"?>
<!-- Created with Inkscape (http://www.inkscape.org/) -->

<svg
   width="319.99515mm"
   height="200mm"
   viewBox="0 0 319.99513 200.00001"
   version="1.1"
   id="svg1"
   xml:space="preserve"
   inkscape:version="1.4 (e7c3feb100, 2024-10-09)"
   sodipodi:docname="ecobox.svg"
   xmlns:inkscape="http://www.inkscape.org/namespaces/inkscape"
   xmlns:sodipodi="http://sodipodi.sourceforge.net/DTD/sodipodi-0.dtd"
   xmlns="http://www.w3.org/2000/svg"
   xmlns:svg="http://www.w3.org/2000/svg"><sodipodi:namedview
     id="namedview1"
     pagecolor="#ffffff"
     bordercolor="#666666"
     borderopacity="1.0"
     inkscape:showpageshadow="2"
     inkscape:pageopacity="0.0"
     inkscape:pagecheckerboard="0"
     inkscape:deskcolor="#d1d1d1"
     inkscape:document-units="mm"
     inkscape:zoom="1.0529882"
     inkscape:cx="581.67792"
     inkscape:cy="408.36165"
     inkscape:window-width="3440"
     inkscape:window-height="1371"
     inkscape:window-x="0"
     inkscape:window-y="0"
     inkscape:window-maximized="1"
     inkscape:current-layer="layer1" /><defs
     id="defs1" /><g
     inkscape:label="Capa 1"
     inkscape:groupmode="layer"
     id="layer1"
     transform="translate(-54.344177,-75.629069)"><path
       style="fill:#193722;stroke-width:3.15852;fill-opacity:1"
       d="m 114.09618,124.47945 c -11.36715,-3.59496 -18.283711,-12.64552 -18.266055,-23.9018 0.02527,-16.881865 16.211245,-28.476487 33.294945,-23.852126 7.29256,1.973982 7.86241,2.81396 5.43098,8.005181 -1.06837,2.280991 -2.02032,4.147267 -2.11542,4.147267 -0.0951,0 -1.52301,-0.564112 -3.17309,-1.253554 -4.48364,-1.873383 -11.18726,-1.589305 -15.12477,0.640991 -9.43912,5.346495 -9.00751,20.515051 0.70934,24.927971 4.15498,1.88698 10.35939,2.03224 14.41543,0.33753 1.65008,-0.68948 3.07799,-1.25355 3.17309,-1.25355 0.0951,0 1.05883,1.89141 2.14157,4.20313 2.37383,5.0682 1.88343,5.8423 -4.96844,7.84275 -5.36003,1.56488 -10.88747,1.62051 -15.51758,0.15633 z m 53.48435,0.0505 c -5.54786,-1.83839 -8.45841,-3.67822 -11.57047,-7.31397 -3.87522,-4.52733 -5.56124,-9.70294 -5.56124,-17.07156 0,-13.170095 8.9214,-23.03211 22.06232,-24.388379 9.79719,-1.011138 19.05575,4.07977 23.68588,13.02398 2.37815,4.594008 2.72186,6.066922 2.72129,11.661739 -0.001,14.21698 -9.06998,24.06173 -22.92974,24.89233 -2.82997,0.16961 -6.54044,-0.18542 -8.40804,-0.80414 z m 14.79313,-11.53692 c 7.50127,-5.34137 7.34177,-19.597428 -0.28017,-25.033436 -3.95014,-2.817339 -10.8692,-2.817339 -14.81937,0 -9.31496,6.643606 -6.95422,24.169176 3.64907,27.090086 3.01936,0.83176 8.86977,-0.2192 11.4504,-2.05665 z m 98.20709,11.74317 c -4.51687,-1.0636 -7.26587,-2.67577 -10.7956,-6.3312 -4.79919,-4.97006 -6.90112,-10.39996 -6.90112,-17.82736 0,-10.27638 4.44798,-17.743886 13.33648,-22.389947 5.74418,-3.002524 15.60109,-3.111682 21.52827,-0.238468 11.16623,5.41295 16.52971,18.70512 12.54837,31.098225 -2.07329,6.45362 -9.0626,13.46806 -15.21631,15.27101 -4.93674,1.44638 -9.56514,1.5797 -14.50009,0.41765 z m 11.37486,-10.25597 c 3.58916,-1.49967 6.97863,-5.62596 8.12821,-9.89518 3.03938,-11.287362 -7.18786,-22.002115 -17.33228,-18.158507 -5.60947,2.12537 -8.78738,7.243061 -8.78738,14.151097 0,10.90019 8.83593,17.728 17.99145,13.90259 z M 54.344177,100.57768 V 76.342616 h 15.46032 15.460307 v 4.596314 4.596283 H 75.236493 65.208182 v 5.014156 5.014155 h 9.61047 9.610437 v 4.596316 4.59631 h -9.610437 -9.61047 v 5.432 5.43199 h 10.028311 10.028311 v 4.59633 4.5963 H 69.804497 54.344177 Z m 161.288653,-0.0158 V 76.15361 l 11.49077,0.345385 c 12.44121,0.373969 15.22355,1.181066 18.52035,5.372268 3.4275,4.357373 1.54231,13.625079 -3.29851,16.215826 -1.74473,0.933754 -1.72076,0.993703 0.94049,2.351491 4.27512,2.18121 6.13274,5.3398 6.13274,10.42777 0,5.48369 -2.47587,9.80951 -6.84793,11.96468 -2.47366,1.21937 -5.58973,1.60061 -15.02929,1.83872 l -11.90862,0.30039 z m 20.90078,13.79772 c 1.67761,-1.5182 2.2319,-5.7428 1.00633,-7.67019 -0.91189,-1.43416 -4.8506,-2.76829 -8.17258,-2.76829 h -2.87053 v 6.37399 6.37404 l 4.18693,-0.4023 c 2.36975,-0.22774 4.90866,-1.05549 5.84985,-1.90725 z m -1.46749,-19.840041 c 0.75214,-0.574536 1.59929,-2.008536 1.88255,-3.186666 0.80241,-3.337547 -1.77522,-5.872104 -6.51528,-6.406369 l -3.93656,-0.443709 v 5.54068 5.540682 h 3.60087 c 1.98049,0 4.21628,-0.470051 4.96842,-1.044618 z m 90.8781,29.751391 c 0,-0.29848 3.57258,-5.95072 7.93907,-12.56081 4.3665,-6.6101 7.93907,-12.419853 7.93907,-12.910562 0,-0.490708 -3.36767,-5.744121 -7.48371,-11.674248 l -7.48373,-10.78206 h 6.87376 6.87375 l 4.16166,6.673074 c 2.28892,3.670172 4.40608,6.678665 4.7048,6.685519 0.2988,0.0064 2.45317,-2.996017 4.78766,-6.673074 l 4.24455,-6.685519 h 6.38136 6.38138 l -1.4702,2.298141 c -0.80857,1.263978 -4.19537,6.290609 -7.52615,11.170275 l -6.056,8.872132 9.06392,13.064792 9.06392,13.06482 h -6.95545 -6.95541 l -5.25607,-7.97101 c -2.89083,-4.38406 -5.52109,-8.13481 -5.84501,-8.33499 -0.3239,-0.20025 -2.93669,3.38676 -5.80618,7.971 l -5.21728,8.335 h -6.17984 c -3.39894,0 -6.17987,-0.24415 -6.17987,-0.54248 z"
       id="path1" /><path
       style="fill:#193722;stroke-width:5.69021;fill-opacity:1"
       d="m 162.64488,202.28241 -11.29149,-5.62126 -1.10524,-9.03322 c -0.60782,-4.96829 -1.28536,-10.68753 -1.50551,-12.70948 l -0.4006,-3.67624 9.03322,-1.90383 c 4.96827,-1.04711 10.38819,-1.86393 12.04428,-1.81523 1.65614,0.0511 -0.90782,0.94582 -5.69763,1.99356 -4.78977,1.04775 -9.04266,2.23886 -9.45071,2.64697 -0.40799,0.40799 4.30197,2.53266 10.46683,4.72123 l 11.20882,3.97918 19.08869,-4.41691 c 10.4988,-2.42929 19.36712,-4.69531 19.70741,-5.03557 0.34027,-0.34028 -4.76504,-2.09408 -11.34509,-3.89734 l -11.96383,-3.27871 -6.49061,1.49699 c -3.56985,0.82336 -7.84561,1.44411 -9.50168,1.37951 l -3.01113,-0.11713 9.03326,-2.09804 9.03322,-2.09803 15.43175,4.09377 15.43179,4.09373 v 2.67517 2.67515 h -1.29109 -1.29103 l -0.97075,9.28763 c -0.53375,5.10825 -1.26739,9.58429 -1.62986,9.94679 -0.87317,0.87318 -38.7999,12.37106 -40.73616,12.34961 -0.82804,-0.0126 -6.58672,-2.54625 -12.79708,-5.63798 z m 10.99277,-15.53214 c -1.40289,-1.37581 -21.23147,-8.70494 -21.86093,-8.08038 -0.23278,0.23089 -0.1873,4.27471 0.10137,8.98587 l 0.52462,8.56579 10.76675,4.90307 10.76677,4.9031 0.45407,-9.04699 0.45407,-9.04699 z m 22.086,13.93652 18.77616,-5.74135 1.02212,-3.65874 c 0.56219,-2.01236 1.08967,-6.12718 1.17223,-9.14414 l 0.15035,-5.48538 -14.67902,3.68723 c -8.07347,2.02799 -17.21957,4.35311 -20.32478,5.167 l -5.64574,1.4798 v 9.72793 c 0,5.35041 0.16962,9.72367 0.37613,9.71847 0.2072,-0.006 8.82563,-2.59315 19.15255,-5.75082 z m 2.71248,-20.90539 22.17195,-5.58818 -2.28427,-0.47684 c -1.25634,-0.26248 -11.31081,1.57244 -22.34317,4.07705 l -20.05894,4.55387 -12.87733,-4.54512 c -7.08248,-2.49981 -13.2314,-4.19101 -13.66424,-3.75824 -0.43304,0.43304 -0.50474,1.0391 -0.15983,1.34724 0.77343,0.69081 24.26836,9.60908 25.87981,9.82358 0.6401,0.0852 11.14124,-2.35976 23.33582,-5.4333 z m 47.58943,14.99784 c 0.44839,-2.27717 1.23673,-7.52771 1.75173,-11.6679 0.51496,-4.14029 1.26381,-8.71332 1.664,-10.16242 l 0.72766,-2.63469 h 3.6624 3.66241 v -2.07395 c 0,-1.14066 0.98371,-2.89042 2.18607,-3.88826 l 2.18605,-1.81426 3.00631,0.95419 3.00631,0.95414 0.93122,2.93404 0.93127,2.9341 h 3.48891 3.48889 l 0.97028,8.65682 c 0.53375,4.76132 1.34871,11.19747 1.81131,14.30262 l 0.84109,5.64577 h -17.56559 -17.56569 z m 25.55075,-2.25835 c 0.47741,-2.69112 1.32144,-8.47997 1.87595,-12.86403 l 1.00807,-7.97103 -11.85419,0.44326 -11.85429,0.44326 -1.11085,8.28046 c -0.61089,4.5543 -1.44827,10.14356 -1.86075,12.42067 l -0.74996,4.14028 h 11.83907 11.83911 z m 6.43837,1.50551 c -0.49905,-1.86308 -0.93771,-6.09739 -0.97419,-9.40955 l -0.0666,-6.02214 -1.27248,2.25829 c -0.69982,1.24205 -1.73696,5.47637 -2.30473,9.40962 l -1.03234,7.15131 h 3.27892 3.2789 z m -9.98221,-25.03337 c 0,-0.72662 -1.01621,-2.1646 -2.25827,-3.19538 l -2.25831,-1.87428 -2.25829,1.87428 c -1.24206,1.03078 -2.25833,2.46876 -2.25833,3.19538 v 1.3212 h 4.51662 4.51658 z"
       id="path2" /></g></svg>
