<?xml version="1.0" encoding="UTF-8" standalone="no"?>
<svg
   id="flag-icons-gb"
   viewBox="0 0 755.90552 755.90552"
   version="1.1"
   sodipodi:docname="gb.svg"
   width="755.90552"
   height="755.90552"
   inkscape:version="1.4 (e7c3feb100, 2024-10-09)"
   xmlns:inkscape="http://www.inkscape.org/namespaces/inkscape"
   xmlns:sodipodi="http://sodipodi.sourceforge.net/DTD/sodipodi-0.dtd"
   xmlns="http://www.w3.org/2000/svg"
   xmlns:svg="http://www.w3.org/2000/svg">
  <defs
     id="defs5" />
  <sodipodi:namedview
     id="namedview5"
     pagecolor="#ffffff"
     bordercolor="#666666"
     borderopacity="1.0"
     inkscape:showpageshadow="2"
     inkscape:pageopacity="0.0"
     inkscape:pagecheckerboard="0"
     inkscape:deskcolor="#d1d1d1"
     showgrid="false"
     inkscape:zoom="0.81621115"
     inkscape:cx="277.50172"
     inkscape:cy="501.09583"
     inkscape:window-width="3440"
     inkscape:window-height="1371"
     inkscape:window-x="0"
     inkscape:window-y="0"
     inkscape:window-maximized="1"
     inkscape:current-layer="flag-icons-gb" />
  <path
     fill="#012169"
     d="M 0,0 H 755.90551 V 755.90551 H 0 Z"
     id="path1"
     style="stroke-width:1.47638" />
  <path
     fill="#ffffff"
     d="M 755.90551,0 V 94.488189 L 475.3937,377.95276 755.90551,654.03543 V 755.90551 H 656.98819 L 375,478.34646 100.3937,755.90551 H 0 V 655.51181 L 274.6063,379.42913 0,109.25197 V 0 H 91.535433 L 375,277.55906 649.6063,0 Z"
     id="path2"
     style="stroke-width:1.47638" />
  <path
     fill="#c8102e"
     d="M 271.65354,478.34646 287.8937,528.54331 62.007874,755.90551 H 0 v -4.42913 z m 183.07087,-17.71654 79.72441,11.81102 221.45669,217.02756 v 66.43701 z M 755.90551,0 472.44094,289.37008 466.53543,224.40945 687.99213,0 Z M 0,1.476378 284.94094,280.51181 197.83465,268.70079 0,72.34252 Z"
     id="path3"
     style="stroke-width:1.47638" />
  <path
     fill="#ffffff"
     d="M 259.84252,0 V 755.90551 H 496.06299 V 0 Z M 0,259.84252 V 496.06299 H 755.90551 V 259.84252 Z"
     id="path4"
     style="stroke-width:1.47638" />
  <path
     fill="#c8102e"
     d="M 0,307.08661 V 448.8189 H 755.90551 V 307.08661 Z M 307.08661,0 V 755.90551 H 448.8189 V 0 Z"
     id="path5"
     style="stroke-width:1.47638" />
</svg>
